<svg width="657.9px" height="121.5px" xmlns="http://www.w3.org/2000/svg" viewBox="-78.93746337890622 14.272731018066409 657.8749267578124 121.45453796386718" style="background: rgba(0, 0, 0, 0)" preserveAspectRatio="xMidYMid"><defs><linearGradient id="editing-gradient-gradient" x1="0" x2="1" y1="0.5" y2="0.5" gradientUnits="objectBoundingBox"><stop offset="0" stop-color="#2e83ef"></stop><stop offset="1" stop-color="#f336f3"></stop></linearGradient></defs><g><g transform="matrix(1.2,0,0,1.4,-19.3,159.2)"><path d="M 44.8 -42.7 L 30.9 -42.7 L 39 -84.9 L 53.1 -84.9 L 44.8 -42.7 Z M 100.6 -41.4 L 100.6 -41.4 L 100.6 -41.4 Q 92.8 -41.4 92.8 -47.4 L 92.8 -47.4 L 92.8 -47.4 Q 92.8 -50.1 94 -55.2 L 94 -55.2 L 94 -55.2 Q 95.1 -60.2 95.5 -62.3 L 95.5 -62.3 L 95.5 -62.3 Q 96.4 -67 96.4 -68.4 L 96.4 -68.4 L 96.4 -68.4 Q 96.4 -71.7 93.9 -71.7 L 93.9 -71.7 L 93.9 -71.7 Q 92.3 -71.7 90.8 -69.5 L 90.8 -69.5 L 90.8 -69.5 Q 89.3 -67.3 88.6 -62.9 L 88.6 -62.9 L 84.6 -42.7 L 72.1 -41.4 L 75.6 -58.8 L 75.6 -58.8 Q 76.1 -61.7 76.6 -65 L 76.6 -65 L 76.6 -65 Q 77.2 -68.2 77.2 -68.8 L 77.2 -68.8 L 77.2 -68.8 Q 77.2 -71.7 75 -71.7 L 75 -71.7 L 75 -71.7 Q 73.5 -71.7 71.9 -69.5 L 71.9 -69.5 L 71.9 -69.5 Q 70.3 -67.3 69.4 -62.9 L 69.4 -62.9 L 65.5 -42.7 L 52.9 -41.4 L 59.6 -75.3 L 70.1 -76.6 L 69 -70.2 L 69 -70.2 Q 70.6 -73.6 73.7 -75.1 L 73.7 -75.1 L 73.7 -75.1 Q 76.8 -76.6 81.6 -76.6 L 81.6 -76.6 L 81.6 -76.6 Q 84.3 -76.6 86.1 -75.3 L 86.1 -75.3 L 86.1 -75.3 Q 87.9 -73.9 88.5 -71.8 L 88.5 -71.8 L 88.5 -71.8 Q 89.6 -74 92.4 -75.3 L 92.4 -75.3 L 92.4 -75.3 Q 95.1 -76.6 98.6 -76.6 L 98.6 -76.6 L 98.6 -76.6 Q 102 -76.6 103.7 -75.9 L 103.7 -75.9 L 103.7 -75.9 Q 105.4 -75.2 106.4 -73.9 L 106.4 -73.9 L 106.4 -73.9 Q 108.1 -71.7 108.1 -67.6 L 108.1 -67.6 L 108.1 -67.6 Q 108.1 -63.6 106.4 -55.2 L 106.4 -55.2 L 106.4 -55.2 Q 105.5 -51.1 105.5 -49.6 L 105.5 -49.6 L 105.5 -49.6 Q 105.5 -48.1 106.4 -47.2 L 106.4 -47.2 L 106.4 -47.2 Q 107.2 -46.3 108.5 -46.2 L 108.5 -46.2 L 108.5 -46.2 Q 107.9 -44 105.7 -42.7 L 105.7 -42.7 L 105.7 -42.7 Q 103.5 -41.4 100.6 -41.4 Z M 116.2 -44.6 L 116.2 -44.6 L 116.2 -44.6 Q 114.7 -46.3 114.1 -48.9 L 114.1 -48.9 L 114.1 -48.9 Q 113.4 -51.5 113.4 -55.8 L 113.4 -55.8 L 113.4 -55.8 Q 113.4 -60.1 114.9 -64 L 114.9 -64 L 114.9 -64 Q 116.3 -67.9 119 -70.7 L 119 -70.7 L 119 -70.7 Q 124.5 -76.6 133.6 -76.6 L 133.6 -76.6 L 133.6 -76.6 Q 136.9 -76.6 139.2 -75.5 L 139.2 -75.5 L 150.2 -76.6 L 145.4 -51.7 L 145.4 -51.7 Q 145.3 -50.9 145.3 -49.5 L 145.3 -49.5 L 145.3 -49.5 Q 145.3 -48.1 146.1 -47.2 L 146.1 -47.2 L 146.1 -47.2 Q 147 -46.3 148.3 -46.2 L 148.3 -46.2 L 148.3 -46.2 Q 147.6 -44 145.3 -42.7 L 145.3 -42.7 L 145.3 -42.7 Q 143 -41.4 140.3 -41.4 L 140.3 -41.4 L 140.3 -41.4 Q 137.7 -41.4 135.9 -42.4 L 135.9 -42.4 L 135.9 -42.4 Q 134.2 -43.4 133.7 -45.1 L 133.7 -45.1 L 133.7 -45.1 Q 132.6 -43.5 130.5 -42.4 L 130.5 -42.4 L 130.5 -42.4 Q 128.3 -41.4 125.4 -41.4 L 125.4 -41.4 L 125.4 -41.4 Q 122.5 -41.4 120.1 -42.2 L 120.1 -42.2 L 120.1 -42.2 Q 117.7 -43 116.2 -44.6 Z M 129.7 -70.6 L 129.7 -70.6 L 129.7 -70.6 Q 129 -69.5 128.4 -67.5 L 128.4 -67.5 L 128.4 -67.5 Q 127.7 -65.6 126.7 -60.3 L 126.7 -60.3 L 126.7 -60.3 Q 125.6 -55.1 125.6 -51.4 L 125.6 -51.4 L 125.6 -51.4 Q 125.6 -47.7 126.2 -46.6 L 126.2 -46.6 L 126.2 -46.6 Q 126.8 -45.5 127.8 -45.5 L 127.8 -45.5 L 127.8 -45.5 Q 129.8 -45.5 131.3 -47.5 L 131.3 -47.5 L 131.3 -47.5 Q 132.8 -49.4 133.4 -52.9 L 133.4 -52.9 L 136.8 -71.6 L 136.8 -71.6 Q 135.5 -72.8 133.9 -72.8 L 133.9 -72.8 L 133.9 -72.8 Q 132.3 -72.8 131.4 -72.3 L 131.4 -72.3 L 131.4 -72.3 Q 130.5 -71.8 129.7 -70.6 Z M 157.9 -69.5 L 157.9 -69.5 L 157.9 -69.5 Q 160.1 -72.5 163.4 -74.6 L 163.4 -74.6 L 163.4 -74.6 Q 166.7 -76.6 170.7 -76.6 L 170.7 -76.6 L 170.7 -76.6 Q 174.8 -76.6 176.7 -75.3 L 176.7 -75.3 L 189.2 -76.6 L 184.9 -52 L 184.9 -52 Q 182.6 -39.5 177.9 -34.6 L 177.9 -34.6 L 177.9 -34.6 Q 173.4 -29.9 164.5 -29.9 L 164.5 -29.9 L 164.5 -29.9 Q 157.8 -29.9 154 -32 L 154 -32 L 154 -32 Q 150.1 -34.1 150.1 -37.6 L 150.1 -37.6 L 150.1 -37.6 Q 150.1 -40.3 152.1 -41.8 L 152.1 -41.8 L 152.1 -41.8 Q 154.1 -43.3 157.2 -43.3 L 157.2 -43.3 L 157.2 -43.3 Q 159.8 -43.3 161.9 -42.1 L 161.9 -42.1 L 161.9 -42.1 Q 163.1 -41.4 163.7 -40.5 L 163.7 -40.5 L 163.7 -40.5 Q 162.2 -39.2 162.2 -37.1 L 162.2 -37.1 L 162.2 -37.1 Q 162.2 -34.4 164.8 -34.4 L 164.8 -34.4 L 164.8 -34.4 Q 169.1 -34.4 171.5 -44.5 L 171.5 -44.5 L 171.5 -44.5 Q 172.2 -47.2 172.8 -50 L 172.8 -50 L 172.8 -50 Q 169.9 -46.5 163.4 -46.5 L 163.4 -46.5 L 163.4 -46.5 Q 158.8 -46.5 156.2 -48.7 L 156.2 -48.7 L 156.2 -48.7 Q 153.6 -50.8 153.6 -56 L 153.6 -56 L 153.6 -56 Q 153.6 -59.2 154.7 -62.8 L 154.7 -62.8 L 154.7 -62.8 Q 155.8 -66.4 157.9 -69.5 Z M 166.2 -55.8 L 166.2 -55.8 L 166.2 -55.8 Q 166.2 -51.4 168.5 -51.4 L 168.5 -51.4 L 168.5 -51.4 Q 170 -51.4 171.5 -53.1 L 171.5 -53.1 L 171.5 -53.1 Q 172.6 -54.4 173.1 -56.4 L 173.1 -56.4 L 176.4 -72.8 L 176.4 -72.8 Q 176 -72.9 175.7 -73 L 175.7 -73 L 175.7 -73 Q 175.1 -73.3 174.2 -73.3 L 174.2 -73.3 L 174.2 -73.3 Q 170.3 -73.3 168 -66.9 L 168 -66.9 L 168 -66.9 Q 166.2 -61.9 166.2 -55.8 Z M 217.6 -53.5 L 217.6 -53.5 L 217.6 -53.5 Q 219.2 -52.4 219.2 -50 L 219.2 -50 L 219.2 -50 Q 219.2 -47.6 218 -46.1 L 218 -46.1 L 218 -46.1 Q 216.8 -44.6 214.8 -43.5 L 214.8 -43.5 L 214.8 -43.5 Q 210.7 -41.4 206.3 -41.4 L 206.3 -41.4 L 206.3 -41.4 Q 201.9 -41.4 199.3 -42.4 L 199.3 -42.4 L 199.3 -42.4 Q 196.7 -43.3 195 -45.1 L 195 -45.1 L 195 -45.1 Q 191.6 -48.5 191.6 -54.7 L 191.6 -54.7 L 191.6 -54.7 Q 191.6 -64.4 196.8 -70.3 L 196.8 -70.3 L 196.8 -70.3 Q 202.5 -76.6 212.3 -76.6 L 212.3 -76.6 L 212.3 -76.6 Q 218.3 -76.6 221.4 -74.1 L 221.4 -74.1 L 221.4 -74.1 Q 223.6 -72.1 223.6 -69 L 223.6 -69 L 223.6 -69 Q 223.6 -57.7 204.1 -57.7 L 204.1 -57.7 L 204.1 -57.7 Q 203.9 -56.1 203.9 -54.7 L 203.9 -54.7 L 203.9 -54.7 Q 203.9 -51.7 205.2 -50.6 L 205.2 -50.6 L 205.2 -50.6 Q 206.5 -49.5 208.9 -49.5 L 208.9 -49.5 L 208.9 -49.5 Q 211.4 -49.5 214 -50.6 L 214 -50.6 L 214 -50.6 Q 216.6 -51.7 217.6 -53.5 Z M 204.6 -60.5 L 204.6 -60.5 L 204.6 -60.5 Q 209.1 -60.5 211.8 -63.3 L 211.8 -63.3 L 211.8 -63.3 Q 214.4 -66 214.4 -70.3 L 214.4 -70.3 L 214.4 -70.3 Q 214.4 -71.8 213.8 -72.6 L 213.8 -72.6 L 213.8 -72.6 Q 213.3 -73.4 212.2 -73.4 L 212.2 -73.4 L 212.2 -73.4 Q 211.1 -73.4 210.2 -72.9 L 210.2 -72.9 L 210.2 -72.9 Q 209.3 -72.5 208.3 -71.1 L 208.3 -71.1 L 208.3 -71.1 Q 205.9 -67.9 204.6 -60.5 Z M 244.9 -65.2 L 244.9 -65.2 L 244.9 -65.2 Q 245.8 -67.5 245.8 -69.6 L 245.8 -69.6 L 245.8 -69.6 Q 245.8 -73.4 242.7 -73.4 L 242.7 -73.4 L 242.7 -73.4 Q 241.1 -73.4 239.8 -71.9 L 239.8 -71.9 L 239.8 -71.9 Q 238.5 -70.5 238.5 -68.7 L 238.5 -68.7 L 238.5 -68.7 Q 238.5 -67.4 239.5 -66.4 L 239.5 -66.4 L 239.5 -66.4 Q 241 -65 244.8 -62.7 L 244.8 -62.7 L 244.8 -62.7 Q 248.6 -60.4 250 -58.5 L 250 -58.5 L 250 -58.5 Q 251.4 -56.6 251.4 -54 L 251.4 -54 L 251.4 -54 Q 251.4 -51.4 250.2 -49 L 250.2 -49 L 250.2 -49 Q 248.9 -46.7 246.7 -45 L 246.7 -45 L 246.7 -45 Q 241.9 -41.4 234.2 -41.4 L 234.2 -41.4 L 234.2 -41.4 Q 230.1 -41.4 226.9 -43.6 L 226.9 -43.6 L 226.9 -43.6 Q 223.7 -45.7 223.7 -48.2 L 223.7 -48.2 L 223.7 -48.2 Q 223.7 -50.7 225.5 -52.2 L 225.5 -52.2 L 225.5 -52.2 Q 227.3 -53.6 230 -53.6 L 230 -53.6 L 230 -53.6 Q 232.7 -53.6 234.3 -52.6 L 234.3 -52.6 L 234.3 -52.6 Q 233.5 -50.5 233.5 -49.1 L 233.5 -49.1 L 233.5 -49.1 Q 233.5 -44.9 237.1 -44.9 L 237.1 -44.9 L 237.1 -44.9 Q 238.6 -44.9 239.7 -45.8 L 239.7 -45.8 L 239.7 -45.8 Q 240.7 -46.8 240.7 -48.5 L 240.7 -48.5 L 240.7 -48.5 Q 240.7 -51.7 235.2 -55.2 L 235.2 -55.2 L 235.2 -55.2 Q 230.7 -58.1 229.7 -59.3 L 229.7 -59.3 L 229.7 -59.3 Q 227.9 -61.3 227.9 -63.9 L 227.9 -63.9 L 227.9 -63.9 Q 227.9 -66.4 229.2 -68.9 L 229.2 -68.9 L 229.2 -68.9 Q 230.4 -71.3 232.6 -73 L 232.6 -73 L 232.6 -73 Q 237.3 -76.6 245.4 -76.6 L 245.4 -76.6 L 245.4 -76.6 Q 249.6 -76.6 252 -75 L 252 -75 L 252 -75 Q 254.5 -73.3 254.5 -70.5 L 254.5 -70.5 L 254.5 -70.5 Q 254.5 -67.7 252.8 -66.1 L 252.8 -66.1 L 252.8 -66.1 Q 251.1 -64.5 248 -64.5 L 248 -64.5 L 248 -64.5 Q 245.9 -64.5 244.9 -65.2 Z M 296 -63.3 L 308.9 -64.5 L 308.9 -64.5 Q 304.3 -54.4 304.3 -42.6 L 304.3 -42.6 L 304.3 -42.6 Q 302.6 -41.4 300 -41.4 L 300 -41.4 L 300 -41.4 Q 297.5 -41.4 295.9 -42.6 L 295.9 -42.6 L 295.9 -42.6 Q 294.3 -43.8 294 -45 L 294 -45 L 294 -45 Q 292.4 -43.3 289.8 -42.4 L 289.8 -42.4 L 289.8 -42.4 Q 287.2 -41.4 284.5 -41.4 L 284.5 -41.4 L 284.5 -41.4 Q 281.7 -41.4 279.3 -42.3 L 279.3 -42.3 L 279.3 -42.3 Q 276.9 -43.2 275 -45.2 L 275 -45.2 L 275 -45.2 Q 271 -49.6 271 -57.8 L 271 -57.8 L 271 -57.8 Q 271 -70.6 277.8 -78.3 L 277.8 -78.3 L 277.8 -78.3 Q 284.8 -86.2 297.3 -86.2 L 297.3 -86.2 L 297.3 -86.2 Q 306 -86.2 309 -81.7 L 309 -81.7 L 309 -81.7 Q 310 -80.3 310 -78.6 L 310 -78.6 L 310 -78.6 Q 310 -76.9 309.3 -75.5 L 309.3 -75.5 L 309.3 -75.5 Q 308.5 -74.1 307.4 -72.9 L 307.4 -72.9 L 307.4 -72.9 Q 304.6 -70.4 301.2 -70.4 L 301.2 -70.4 L 301.2 -70.4 Q 299.9 -70.4 298.6 -70.8 L 298.6 -70.8 L 298.6 -70.8 Q 298.9 -72.7 298.9 -75 L 298.9 -75 L 298.9 -75 Q 298.9 -77.2 298.7 -78.2 L 298.7 -78.2 L 298.7 -78.2 Q 298.5 -79.2 298.2 -80.1 L 298.2 -80.1 L 298.2 -80.1 Q 297.3 -81.8 295.5 -81.8 L 295.5 -81.8 L 295.5 -81.8 Q 293.7 -81.8 291.7 -79.9 L 291.7 -79.9 L 291.7 -79.9 Q 289.6 -77.9 288 -74.7 L 288 -74.7 L 288 -74.7 Q 284.5 -67.5 284.5 -58.9 L 284.5 -58.9 L 284.5 -58.9 Q 284.5 -54.9 286.1 -52.1 L 286.1 -52.1 L 286.1 -52.1 Q 287.7 -49 290.7 -49 L 290.7 -49 L 290.7 -49 Q 291.7 -49 292.6 -49.6 L 292.6 -49.6 L 292.6 -49.6 Q 293.5 -50.1 293.9 -50.4 L 293.9 -50.4 L 296 -63.3 Z M 314.8 -44.6 L 314.8 -44.6 L 314.8 -44.6 Q 313.3 -46.3 312.6 -48.9 L 312.6 -48.9 L 312.6 -48.9 Q 312 -51.5 312 -55.8 L 312 -55.8 L 312 -55.8 Q 312 -60.1 313.4 -64 L 313.4 -64 L 313.4 -64 Q 314.9 -67.9 317.6 -70.7 L 317.6 -70.7 L 317.6 -70.7 Q 323.1 -76.6 332.2 -76.6 L 332.2 -76.6 L 332.2 -76.6 Q 335.5 -76.6 337.8 -75.5 L 337.8 -75.5 L 348.8 -76.6 L 344 -51.7 L 344 -51.7 Q 343.8 -50.9 343.8 -49.5 L 343.8 -49.5 L 343.8 -49.5 Q 343.8 -48.1 344.7 -47.2 L 344.7 -47.2 L 344.7 -47.2 Q 345.6 -46.3 346.9 -46.2 L 346.9 -46.2 L 346.9 -46.2 Q 346.2 -44 343.9 -42.7 L 343.9 -42.7 L 343.9 -42.7 Q 341.5 -41.4 338.9 -41.4 L 338.9 -41.4 L 338.9 -41.4 Q 336.3 -41.4 334.5 -42.4 L 334.5 -42.4 L 334.5 -42.4 Q 332.8 -43.4 332.3 -45.1 L 332.3 -45.1 L 332.3 -45.1 Q 331.2 -43.5 329.1 -42.4 L 329.1 -42.4 L 329.1 -42.4 Q 326.9 -41.4 324 -41.4 L 324 -41.4 L 324 -41.4 Q 321.1 -41.4 318.7 -42.2 L 318.7 -42.2 L 318.7 -42.2 Q 316.3 -43 314.8 -44.6 Z M 328.3 -70.6 L 328.3 -70.6 L 328.3 -70.6 Q 327.6 -69.5 327 -67.5 L 327 -67.5 L 327 -67.5 Q 326.3 -65.6 325.3 -60.3 L 325.3 -60.3 L 325.3 -60.3 Q 324.2 -55.1 324.2 -51.4 L 324.2 -51.4 L 324.2 -51.4 Q 324.2 -47.7 324.8 -46.6 L 324.8 -46.6 L 324.8 -46.6 Q 325.4 -45.5 326.4 -45.5 L 326.4 -45.5 L 326.4 -45.5 Q 328.4 -45.5 329.9 -47.5 L 329.9 -47.5 L 329.9 -47.5 Q 331.4 -49.4 332 -52.9 L 332 -52.9 L 335.4 -71.6 L 335.4 -71.6 Q 334.1 -72.8 332.5 -72.8 L 332.5 -72.8 L 332.5 -72.8 Q 330.9 -72.8 330 -72.3 L 330 -72.3 L 330 -72.3 Q 329.1 -71.8 328.3 -70.6 Z M 367.5 -46.2 L 367.5 -46.2 L 367.5 -46.2 Q 365.5 -41.4 359.2 -41.4 L 359.2 -41.4 L 359.2 -41.4 Q 356 -41.4 354 -43.7 L 354 -43.7 L 354 -43.7 Q 352.3 -45.5 352.3 -47.6 L 352.3 -47.6 L 352.3 -47.6 Q 352.3 -52.4 354.5 -62.9 L 354.5 -62.9 L 359.2 -87.5 L 372.2 -88.8 L 366 -56.4 L 366 -56.4 Q 364.9 -51.7 364.9 -50 L 364.9 -50 L 364.9 -50 Q 364.9 -46.4 367.5 -46.2 Z M 388.3 -46.2 L 388.3 -46.2 L 388.3 -46.2 Q 386.3 -41.4 379.9 -41.4 L 379.9 -41.4 L 379.9 -41.4 Q 376.7 -41.4 374.7 -43.7 L 374.7 -43.7 L 374.7 -43.7 Q 373 -45.5 373 -47.6 L 373 -47.6 L 373 -47.6 Q 373 -52.4 375.3 -62.9 L 375.3 -62.9 L 379.9 -87.5 L 392.9 -88.8 L 386.7 -56.4 L 386.7 -56.4 Q 385.6 -51.7 385.6 -50 L 385.6 -50 L 385.6 -50 Q 385.6 -46.4 388.3 -46.2 Z M 419.6 -53.5 L 419.6 -53.5 L 419.6 -53.5 Q 421.2 -52.4 421.2 -50 L 421.2 -50 L 421.2 -50 Q 421.2 -47.6 420 -46.1 L 420 -46.1 L 420 -46.1 Q 418.8 -44.6 416.8 -43.5 L 416.8 -43.5 L 416.8 -43.5 Q 412.7 -41.4 408.3 -41.4 L 408.3 -41.4 L 408.3 -41.4 Q 403.9 -41.4 401.3 -42.4 L 401.3 -42.4 L 401.3 -42.4 Q 398.7 -43.3 397 -45.1 L 397 -45.1 L 397 -45.1 Q 393.6 -48.5 393.6 -54.7 L 393.6 -54.7 L 393.6 -54.7 Q 393.6 -64.4 398.8 -70.3 L 398.8 -70.3 L 398.8 -70.3 Q 404.5 -76.6 414.2 -76.6 L 414.2 -76.6 L 414.2 -76.6 Q 420.3 -76.6 423.3 -74.1 L 423.3 -74.1 L 423.3 -74.1 Q 425.6 -72.1 425.6 -69 L 425.6 -69 L 425.6 -69 Q 425.6 -57.7 406.1 -57.7 L 406.1 -57.7 L 406.1 -57.7 Q 405.9 -56.1 405.9 -54.7 L 405.9 -54.7 L 405.9 -54.7 Q 405.9 -51.7 407.2 -50.6 L 407.2 -50.6 L 407.2 -50.6 Q 408.5 -49.5 410.9 -49.5 L 410.9 -49.5 L 410.9 -49.5 Q 413.4 -49.5 415.9 -50.6 L 415.9 -50.6 L 415.9 -50.6 Q 418.5 -51.7 419.6 -53.5 Z M 406.6 -60.5 L 406.6 -60.5 L 406.6 -60.5 Q 411.1 -60.5 413.7 -63.3 L 413.7 -63.3 L 413.7 -63.3 Q 416.4 -66 416.4 -70.3 L 416.4 -70.3 L 416.4 -70.3 Q 416.4 -71.8 415.8 -72.6 L 415.8 -72.6 L 415.8 -72.6 Q 415.3 -73.4 414.2 -73.4 L 414.2 -73.4 L 414.2 -73.4 Q 413.1 -73.4 412.2 -72.9 L 412.2 -72.9 L 412.2 -72.9 Q 411.2 -72.5 410.3 -71.1 L 410.3 -71.1 L 410.3 -71.1 Q 407.9 -67.9 406.6 -60.5 Z M 447.8 -60.7 L 447.8 -60.7 L 447.8 -60.7 Q 450.1 -64.8 450.1 -68.9 L 450.1 -68.9 L 450.1 -68.9 Q 450.1 -71.7 448.1 -71.7 L 448.1 -71.7 L 448.1 -71.7 Q 446.6 -71.7 445 -69.1 L 445 -69.1 L 445 -69.1 Q 443.3 -66.4 442.8 -63.1 L 442.8 -63.1 L 439.5 -42.7 L 426.2 -41.4 L 432.7 -75.3 L 443.3 -76.6 L 442.2 -70.2 L 442.2 -70.2 Q 445.3 -76.6 452.3 -76.6 L 452.3 -76.6 L 452.3 -76.6 Q 456 -76.6 458.1 -74.7 L 458.1 -74.7 L 458.1 -74.7 Q 460.1 -72.8 460.1 -68.8 L 460.1 -68.8 L 460.1 -68.8 Q 460.1 -64.9 457.5 -62.4 L 457.5 -62.4 L 457.5 -62.4 Q 454.9 -59.9 450.5 -59.9 L 450.5 -59.9 L 450.5 -59.9 Q 448.6 -59.9 447.8 -60.7 Z M 481.4 -49.9 L 481.4 -49.9 L 481.4 -49.9 Q 478.1 -46.5 472 -46.5 L 472 -46.5 L 472 -46.5 Q 464.4 -46.5 462.8 -52 L 462.8 -52 L 462.8 -52 Q 462.3 -53.7 462.3 -55.6 L 462.3 -55.6 L 462.3 -55.6 Q 462.3 -57.4 462.7 -59.3 L 462.7 -59.3 L 465.7 -75.3 L 478.7 -76.6 L 475.2 -58 L 475.2 -58 Q 475 -57.2 474.9 -56.3 L 474.9 -56.3 L 474.9 -56.3 Q 474.7 -55.4 474.7 -54.4 L 474.7 -54.4 L 474.7 -54.4 Q 474.7 -53.5 475 -52.9 L 475 -52.9 L 475 -52.9 Q 475.3 -52.3 475.8 -51.9 L 475.8 -51.9 L 475.8 -51.9 Q 476.5 -51.4 477.9 -51.4 L 477.9 -51.4 L 477.9 -51.4 Q 479.3 -51.4 480.5 -53.1 L 480.5 -53.1 L 480.5 -53.1 Q 481.6 -54.7 482.2 -57.6 L 482.2 -57.6 L 485.7 -75.3 L 498.3 -76.6 L 493.5 -51.5 L 493.5 -51.5 Q 491.2 -39.2 486.3 -34.3 L 486.3 -34.3 L 486.3 -34.3 Q 483.8 -31.8 480.6 -30.8 L 480.6 -30.8 L 480.6 -30.8 Q 477.4 -29.8 473.2 -29.8 L 473.2 -29.8 L 473.2 -29.8 Q 466.5 -29.8 462.6 -32 L 462.6 -32 L 462.6 -32 Q 458.8 -34.1 458.8 -37.6 L 458.8 -37.6 L 458.8 -37.6 Q 458.8 -40.2 460.8 -41.7 L 460.8 -41.7 L 460.8 -41.7 Q 462.8 -43.2 465.8 -43.2 L 465.8 -43.2 L 465.8 -43.2 Q 468.5 -43.2 470.6 -42.1 L 470.6 -42.1 L 470.6 -42.1 Q 471.8 -41.4 472.4 -40.5 L 472.4 -40.5 L 472.4 -40.5 Q 470.9 -39.2 470.9 -37.1 L 470.9 -37.1 L 470.9 -37.1 Q 470.9 -34.3 473.4 -34.3 L 473.4 -34.3 L 473.4 -34.3 Q 477.7 -34.3 480.1 -44 L 480.1 -44 L 480.1 -44 Q 480.8 -46.9 481.4 -49.9 Z" fill="url(#editing-gradient-gradient)"></path></g></g><style>text {
  font-size: 64px;
  font-family: Arial Black;
  dominant-baseline: central;
  text-anchor: middle;
}</style></svg>